<svg width="336" height="38" viewBox="0 0 336 38" fill="none" xmlns="http://www.w3.org/2000/svg">
<path d="M0.529386 0.636363H5.78507L18.143 30.821H18.5692L30.9271 0.636363H36.1828V37H32.0635V9.37216H31.7084L20.3447 37H16.3675L5.00382 9.37216H4.6487V37H0.529386V0.636363ZM61.6311 25.8494V9.72727H65.8215V37H61.6311V32.3835H61.347C60.7078 33.7685 59.7135 34.9463 58.3641 35.9169C57.0146 36.8757 55.3101 37.3551 53.2504 37.3551C51.5459 37.3551 50.0307 36.9822 48.705 36.2365C47.3792 35.4789 46.3376 34.3426 45.58 32.8274C44.8224 31.3004 44.4436 29.3769 44.4436 27.0568V9.72727H48.634V26.7727C48.634 28.7614 49.1903 30.3475 50.303 31.5312C51.4275 32.715 52.8598 33.3068 54.5999 33.3068C55.6415 33.3068 56.701 33.0405 57.7781 32.5078C58.8672 31.9751 59.7786 31.1584 60.5125 30.0575C61.2583 28.9567 61.6311 27.554 61.6311 25.8494ZM77.6867 20.5938V37H73.4964V9.72727H77.5447V13.9886H77.8998C78.539 12.6037 79.5096 11.491 80.8117 10.6506C82.1138 9.7983 83.7947 9.37216 85.8543 9.37216C87.7009 9.37216 89.3167 9.75095 90.7016 10.5085C92.0866 11.2543 93.1637 12.3906 93.9331 13.9176C94.7026 15.4328 95.0873 17.3504 95.0873 19.6705V37H90.8969V19.9545C90.8969 17.812 90.3406 16.143 89.2279 14.9474C88.1152 13.7401 86.5882 13.1364 84.6469 13.1364C83.3093 13.1364 82.1138 13.4264 81.0603 14.0064C80.0186 14.5864 79.1959 15.4328 78.5922 16.5455C77.9885 17.6581 77.6867 19.0076 77.6867 20.5938ZM113.043 37.5682C110.77 37.5682 108.764 36.9941 107.024 35.8459C105.283 34.6858 103.922 33.0523 102.94 30.9453C101.957 28.8265 101.466 26.3229 101.466 23.4347C101.466 20.5701 101.957 18.0843 102.94 15.9773C103.922 13.8703 105.289 12.2427 107.041 11.0945C108.793 9.94626 110.817 9.37216 113.114 9.37216C114.889 9.37216 116.292 9.66809 117.322 10.2599C118.363 10.84 119.157 11.5028 119.701 12.2486C120.257 12.9825 120.689 13.5862 120.997 14.0597H121.352V0.636363H125.543V37H121.494V32.8097H120.997C120.689 33.3068 120.252 33.9342 119.683 34.6918C119.115 35.4375 118.304 36.1063 117.251 36.6982C116.197 37.2782 114.795 37.5682 113.043 37.5682ZM113.611 33.804C115.292 33.804 116.712 33.366 117.872 32.4901C119.032 31.6023 119.914 30.3771 120.518 28.8146C121.122 27.2403 121.423 25.4233 121.423 23.3636C121.423 21.3277 121.127 19.5462 120.536 18.0192C119.944 16.4804 119.068 15.2848 117.908 14.4325C116.748 13.5684 115.315 13.1364 113.611 13.1364C111.835 13.1364 110.356 13.5921 109.172 14.5036C108 15.4032 107.118 16.6283 106.526 18.179C105.946 19.7178 105.656 21.446 105.656 23.3636C105.656 25.3049 105.952 27.0687 106.544 28.6548C107.148 30.2292 108.036 31.4839 109.207 32.419C110.391 33.3423 111.859 33.804 113.611 33.804ZM144.879 37.5682C142.417 37.5682 140.256 36.9822 138.398 35.8104C136.551 34.6385 135.107 32.9991 134.065 30.892C133.036 28.785 132.521 26.3229 132.521 23.5057C132.521 20.6648 133.036 18.1849 134.065 16.0661C135.107 13.9472 136.551 12.3018 138.398 11.13C140.256 9.9581 142.417 9.37216 144.879 9.37216C147.341 9.37216 149.495 9.9581 151.342 11.13C153.2 12.3018 154.644 13.9472 155.674 16.0661C156.716 18.1849 157.237 20.6648 157.237 23.5057C157.237 26.3229 156.716 28.785 155.674 30.892C154.644 32.9991 153.2 34.6385 151.342 35.8104C149.495 36.9822 147.341 37.5682 144.879 37.5682ZM144.879 33.804C146.749 33.804 148.288 33.3246 149.495 32.3658C150.703 31.407 151.596 30.1463 152.176 28.5838C152.756 27.0213 153.046 25.3286 153.046 23.5057C153.046 21.6828 152.756 19.9841 152.176 18.4098C151.596 16.8355 150.703 15.563 149.495 14.5923C148.288 13.6217 146.749 13.1364 144.879 13.1364C143.008 13.1364 141.47 13.6217 140.262 14.5923C139.055 15.563 138.161 16.8355 137.581 18.4098C137.001 19.9841 136.711 21.6828 136.711 23.5057C136.711 25.3286 137.001 27.0213 137.581 28.5838C138.161 30.1463 139.055 31.407 140.262 32.3658C141.47 33.3246 143.008 33.804 144.879 33.804ZM203.122 12C202.731 10.8045 202.216 9.73319 201.577 8.78622C200.95 7.82741 200.198 7.01065 199.322 6.33594C198.458 5.66122 197.475 5.14631 196.375 4.79119C195.274 4.43608 194.066 4.25852 192.752 4.25852C190.598 4.25852 188.639 4.81487 186.875 5.92756C185.112 7.04025 183.709 8.67969 182.667 10.8459C181.626 13.0121 181.105 15.6695 181.105 18.8182C181.105 21.9669 181.631 24.6243 182.685 26.7905C183.738 28.9567 185.165 30.5961 186.964 31.7088C188.763 32.8215 190.787 33.3778 193.036 33.3778C195.12 33.3778 196.955 32.9339 198.541 32.0462C200.139 31.1465 201.382 29.88 202.269 28.2464C203.169 26.6011 203.619 24.6657 203.619 22.4403L204.968 22.7244H194.031V18.8182H207.88V22.7244C207.88 25.7192 207.241 28.3234 205.963 30.5369C204.696 32.7505 202.944 34.4669 200.707 35.6861C198.482 36.8935 195.925 37.4972 193.036 37.4972C189.817 37.4972 186.988 36.7396 184.549 35.2244C182.123 33.7093 180.229 31.5549 178.867 28.7614C177.518 25.9678 176.843 22.6534 176.843 18.8182C176.843 15.9418 177.228 13.3553 177.997 11.0589C178.779 8.75071 179.88 6.78575 181.3 5.16406C182.72 3.54238 184.401 2.29948 186.343 1.43537C188.284 0.571258 190.42 0.139203 192.752 0.139203C194.67 0.139203 196.457 0.429213 198.115 1.00923C199.784 1.57741 201.269 2.38826 202.571 3.44176C203.885 4.48343 204.98 5.73224 205.856 7.18821C206.732 8.63234 207.336 10.2363 207.667 12H203.122ZM222.879 37.6392C221.151 37.6392 219.583 37.3137 218.174 36.6626C216.765 35.9998 215.647 35.0469 214.818 33.804C213.99 32.5492 213.575 31.0341 213.575 29.2585C213.575 27.696 213.883 26.4295 214.499 25.4588C215.114 24.4763 215.937 23.7069 216.967 23.1506C217.997 22.5942 219.133 22.1799 220.376 21.9077C221.631 21.6236 222.891 21.3987 224.158 21.233C225.815 21.0199 227.158 20.8601 228.188 20.7536C229.23 20.6352 229.988 20.4399 230.461 20.1676C230.946 19.8954 231.189 19.4219 231.189 18.7472V18.6051C231.189 16.8532 230.71 15.492 229.751 14.5213C228.804 13.5507 227.366 13.0653 225.436 13.0653C223.436 13.0653 221.867 13.5033 220.731 14.3793C219.595 15.2552 218.796 16.1903 218.334 17.1847L214.357 15.7642C215.067 14.107 216.014 12.8168 217.198 11.8935C218.393 10.9583 219.695 10.3073 221.104 9.94034C222.524 9.56155 223.921 9.37216 225.294 9.37216C226.17 9.37216 227.176 9.47869 228.313 9.69176C229.461 9.89299 230.568 10.3132 231.633 10.9524C232.71 11.5916 233.604 12.5563 234.314 13.8466C235.024 15.1368 235.379 16.8651 235.379 19.0312V37H231.189V33.3068H230.976C230.692 33.8987 230.218 34.532 229.555 35.2067C228.893 35.8814 228.011 36.4555 226.91 36.929C225.809 37.4025 224.466 37.6392 222.879 37.6392ZM223.519 33.875C225.176 33.875 226.573 33.5495 227.709 32.8984C228.857 32.2474 229.721 31.407 230.301 30.3771C230.893 29.3473 231.189 28.2642 231.189 27.1278V23.2926C231.011 23.5057 230.621 23.701 230.017 23.8786C229.425 24.0443 228.739 24.1922 227.957 24.3224C227.188 24.4408 226.436 24.5473 225.703 24.642C224.98 24.7249 224.395 24.7959 223.945 24.8551C222.856 24.9972 221.838 25.228 220.891 25.5476C219.956 25.8554 219.198 26.3229 218.618 26.9503C218.05 27.5658 217.766 28.4062 217.766 29.4716C217.766 30.9276 218.304 32.0284 219.381 32.7741C220.47 33.508 221.85 33.875 223.519 33.875ZM243.028 37V9.72727H247.076V13.9886H247.431C247.999 12.5327 248.917 11.4022 250.183 10.5973C251.45 9.78054 252.971 9.37216 254.746 9.37216C256.546 9.37216 258.043 9.78054 259.239 10.5973C260.446 11.4022 261.387 12.5327 262.062 13.9886H262.346C263.044 12.58 264.092 11.4614 265.489 10.6328C266.885 9.79238 268.56 9.37216 270.513 9.37216C272.952 9.37216 274.946 10.1357 276.497 11.6626C278.048 13.1778 278.823 15.5393 278.823 18.7472V37H274.633V18.7472C274.633 16.7348 274.082 15.2966 272.981 14.4325C271.881 13.5684 270.584 13.1364 269.093 13.1364C267.175 13.1364 265.69 13.7164 264.636 14.8764C263.583 16.0246 263.056 17.4806 263.056 19.2443V37H258.795V18.321C258.795 16.7704 258.292 15.5215 257.285 14.5746C256.279 13.6158 254.983 13.1364 253.397 13.1364C252.308 13.1364 251.29 13.4264 250.343 14.0064C249.408 14.5864 248.65 15.3913 248.07 16.4212C247.502 17.4392 247.218 18.617 247.218 19.9545V37H243.028ZM297.919 37.5682C295.291 37.5682 293.025 36.9882 291.119 35.8281C289.225 34.6562 287.763 33.0227 286.733 30.9276C285.715 28.8205 285.206 26.3703 285.206 23.5767C285.206 20.7831 285.715 18.321 286.733 16.1903C287.763 14.0478 289.195 12.3788 291.03 11.1832C292.877 9.97585 295.031 9.37216 297.493 9.37216C298.914 9.37216 300.316 9.6089 301.701 10.0824C303.086 10.5559 304.347 11.3253 305.483 12.3906C306.62 13.4441 307.525 14.8409 308.2 16.581C308.875 18.321 309.212 20.4635 309.212 23.0085V24.7841H288.189V21.1619H304.951C304.951 19.6231 304.643 18.25 304.027 17.0426C303.424 15.8352 302.559 14.8823 301.435 14.1839C300.322 13.4856 299.008 13.1364 297.493 13.1364C295.824 13.1364 294.38 13.5507 293.161 14.3793C291.953 15.196 291.024 16.2614 290.373 17.5753C289.722 18.8892 289.397 20.2978 289.397 21.8011V24.2159C289.397 26.2756 289.752 28.0215 290.462 29.4538C291.184 30.8743 292.184 31.9574 293.463 32.7031C294.741 33.437 296.227 33.804 297.919 33.804C299.02 33.804 300.014 33.6501 300.902 33.3423C301.802 33.0227 302.577 32.5492 303.228 31.9219C303.879 31.2827 304.382 30.4896 304.737 29.5426L308.786 30.679C308.36 32.0521 307.643 33.2595 306.637 34.3011C305.631 35.331 304.388 36.1359 302.909 36.7159C301.429 37.2841 299.766 37.5682 297.919 37.5682ZM334.904 15.8352L331.14 16.9006C330.903 16.2732 330.554 15.6636 330.093 15.0717C329.643 14.468 329.027 13.9709 328.246 13.5803C327.465 13.1896 326.465 12.9943 325.245 12.9943C323.576 12.9943 322.185 13.379 321.073 14.1484C319.972 14.906 319.421 15.8707 319.421 17.0426C319.421 18.0843 319.8 18.907 320.558 19.5107C321.315 20.1143 322.499 20.6174 324.109 21.0199L328.157 22.0142C330.596 22.6061 332.413 23.5116 333.608 24.7308C334.804 25.9382 335.402 27.4948 335.402 29.4006C335.402 30.9631 334.952 32.3598 334.052 33.5909C333.164 34.822 331.921 35.7926 330.323 36.5028C328.725 37.2131 326.867 37.5682 324.748 37.5682C321.966 37.5682 319.664 36.9645 317.841 35.7571C316.018 34.5497 314.864 32.786 314.379 30.4659L318.356 29.4716C318.735 30.9394 319.451 32.0402 320.505 32.7741C321.57 33.508 322.961 33.875 324.677 33.875C326.63 33.875 328.181 33.4607 329.329 32.6321C330.489 31.7917 331.069 30.7855 331.069 29.6136C331.069 28.6667 330.738 27.8736 330.075 27.2344C329.412 26.5833 328.394 26.098 327.021 25.7784L322.475 24.7131C319.978 24.1212 318.143 23.2038 316.971 21.9609C315.811 20.7062 315.231 19.1378 315.231 17.2557C315.231 15.7169 315.663 14.3556 316.527 13.1719C317.403 11.9882 318.593 11.0589 320.096 10.3842C321.611 9.70952 323.328 9.37216 325.245 9.37216C327.944 9.37216 330.063 9.96401 331.602 11.1477C333.152 12.3314 334.253 13.8939 334.904 15.8352Z" fill="#1410EB"/>
</svg>
